<?xml version="1.0" encoding="UTF-8" standalone="no"?>
<svg
   id="Layer_1"
   data-name="Layer 1"
   viewBox="0 0 632.89 428.28"
   version="1.1"
   sodipodi:docname="Pretty Good Barbershop_Logo_Alternative_FRONT copy 5_NOBARBERSHOP.svg"
   inkscape:version="1.4.2 (f4327f4, 2025-05-13)"
   xmlns:inkscape="http://www.inkscape.org/namespaces/inkscape"
   xmlns:sodipodi="http://sodipodi.sourceforge.net/DTD/sodipodi-0.dtd"
   xmlns="http://www.w3.org/2000/svg"
   xmlns:svg="http://www.w3.org/2000/svg">
  <sodipodi:namedview
     id="namedview20"
     pagecolor="#ffffff"
     bordercolor="#000000"
     borderopacity="0.25"
     inkscape:showpageshadow="2"
     inkscape:pageopacity="0.0"
     inkscape:pagecheckerboard="0"
     inkscape:deskcolor="#d1d1d1"
     inkscape:zoom="2.8789577"
     inkscape:cx="316.43397"
     inkscape:cy="214.14"
     inkscape:window-width="2880"
     inkscape:window-height="1514"
     inkscape:window-x="3373"
     inkscape:window-y="-11"
     inkscape:window-maximized="1"
     inkscape:current-layer="Layer_1" />
  <defs
     id="defs1">
    <style
       id="style1">
      .cls-1 {
        fill: #183fc7;
      }
    </style>
  </defs>
  <g
     id="g20">
    <path
       class="cls-1"
       d="M220.39,85.77l-4.37-.69c-6.25-1.26-11.17-.31-14.78,2.85-3.43,2.95-5.38,7.71-5.9,13.52l4.03,53.26-34.6,2.62-7.77-102.76,34.6-2.62,.58,7.65c3.3-4.67,9.79-10.35,21.76-9.72l12.46,2.09-6,33.81Z"
       id="path11" />
    <path
       class="cls-1"
       d="M228.44,202.74c-10.66-8.8-17.01-21.59-18.11-36.12-1.52-20.07,5.78-32.92,12.34-40.15,8.33-9.28,20.6-14.82,33.26-15.2,28.58-.82,40.48,16.74,45.46,31.74l.26,.94-42.51,37.82c1.95,.43,3.88,.47,5.78,.14,16.92-2.43,33.98-21.12,34.15-21.33l1.72-2.63,2.18,36.65-.34,.6c-.53,.62-12.77,16.73-38.76,18.69-12.81,.97-25.81-3.24-35.45-11.16Zm12.3-40.72c.04,.57,.28,1.13,.32,1.71l23.43-20.61c-1.59-.65-4.36-1.78-8.57-1.47-4.21,.32-8.26,2.55-11.25,6.23-3.17,3.89-4.51,8.99-3.93,14.14Z"
       id="path12" />
    <path
       class="cls-1"
       d="M312.65,86.06l-17.41,1.32-2.28-30.2,17.41-1.32-1.92-27.92,34.6-2.62,2.11,27.91,20.75-1.57,2.28,30.2-20.75,1.57,2.36,31.2c.13,1.72,.95,7.43,6.49,7.01,3.25-.25,5.96-2.57,5.96-2.57l12.84-8.62,2.47,32.69-11.38,7.55c-.37,.22-6.97,4.37-15.38,5.01-21.79,1.65-33.83-10.13-35.68-34.59l-2.46-35.03Z"
       id="path13" />
    <path
       class="cls-1"
       d="M415.74,137l-16.9,4.37-7.58-29.32,16.9-4.37-6.82-27.14,33.59-8.68,7,27.1,18.62-4.81,7.58,29.32-18.62,4.81,7.83,30.29c.43,1.67,2.24,7.14,7.62,5.75,3.16-.82,5.41-3.58,5.41-3.58l11.12-10.76,8.2,31.74-9.87,9.44c-.32,.28-6.09,5.53-14.26,7.64-21.16,5.47-35.09-4-41.23-27.75l-8.6-34.05Z"
       id="path14" />
    <path
       class="cls-1"
       d="M552.02,186.3l-67.55-57.36,32.19-19.25,33.81,34.03-15.8-44.8,30.35-18.15,28.61,106.1c4.6,18.99,6.97,34.25-8.27,43.36-11.35,6.79-19.3,6.9-19.55,6.84l-5.86,.31-13.68-22.88,7.42-.16s6.8-.27,9.33-4.52c1.08-.79,3.5-6.09,2.28-9.87-1.22-3.77-11.01-11.64-13.27-13.66Z"
       id="path15" />
    <path
       class="cls-1"
       d="M71.2,213.45l-34.71-3.5,14.02-139.13,34.71,3.5-.5,4.96c5.55-3.49,12.75-6.04,22.09-5.09,22.31,2.25,43.22,22.27,39.8,56.22-1.35,13.35-7.19,25.48-16.35,34.19-9.58,9.05-22.15,13.37-35.12,12.07-8.58-.86-14.84-3.81-19.47-7.55l-4.47,44.34Zm22.88-72.15c8.77,.88,16.73-5.44,17.62-14.22,.88-8.77-5.65-16.56-14.42-17.44s-16.54,5.46-17.43,14.23c-.88,8.77,5.46,16.54,14.23,17.43Z"
       id="path16" />
    <path
       class="cls-1"
       d="M96.3,235.39c-1.94-25.69,17.38-48.18,43.07-50.12,5.97-.45,11.84,.31,17.17,1.91,1.21-2.5,2.81-5.22,5.05-7.39,5.8-5.44,14.24-7.69,25.34-6.52l1.21,.11,2.02,26.68-2.07-.84c-5.79-2.37-9.52-1.48-11.62-.12,7.39,7.65,12.37,17.89,13.23,29.24,.69,9.16-1.26,17.72-5.3,25.23,3.39,5.15,6.95,12.49,7.68,22.05,.87,11.55-2.66,23.03-9.61,31.77-7.67,9.79-19.06,15.46-32.6,16.48-29.87,2.26-47.61-15.22-48.27-15.97l-.64-.55,11.12-33.08,1.56,2.09c.21,.18,11,12.99,29.12,11.62,12.15-.92,15.91-6.81,16.95-11.5,.17-.41,.15-.61,.12-1.01-4.08,1.71-8.61,2.65-13.39,3.02-25.69,1.94-48.18-17.38-50.12-43.07Zm47.45,7.83c6.37-.48,11.17-5.85,10.69-12.22-.47-6.17-6.04-10.96-12.41-10.48s-10.96,6.04-10.49,12.21c.48,6.37,6.04,10.96,12.21,10.49Z"
       id="path17" />
    <path
       class="cls-1"
       d="m 210.19,284.41 c -2.17,-28.65 19.49,-53.85 48.14,-56.02 28.65,-2.17 53.86,19.49 56.02,48.14 2.17,28.66 -19.49,53.86 -48.14,56.02 -28.65,2.17 -53.85,-19.49 -56.02,-48.14 z m 53.37,13.1 c 9.29,-0.7 16.45,-9.03 15.75,-18.33 -0.7,-9.29 -9.03,-16.45 -18.33,-15.75 -9.29,0.7 -16.45,9.03 -15.75,18.33 0.7,9.29 9.03,16.45 18.33,15.75 z"
       id="path18"
       style="display:inline" />
    <path
       class="cls-1"
       d="m 320.07,229.88 c -2.17,-28.65 19.49,-53.85 48.14,-56.02 28.65,-2.17 53.86,19.49 56.02,48.14 2.17,28.66 -19.49,53.86 -48.14,56.02 -28.65,2.16 -53.85,-19.49 -56.02,-48.14 z m 53.37,13.1 c 9.29,-0.7 16.45,-9.03 15.75,-18.33 -0.7,-9.29 -9.03,-16.45 -18.33,-15.75 -9.29,0.7 -16.45,9.03 -15.75,18.33 0.7,9.29 9.03,16.45 18.33,15.75 z"
       id="path19"
       style="display:inline" />
    <path
       class="cls-1"
       d="m 443.35,321.68 c -9.42,-8.63 -15.07,-21.64 -16.26,-37.33 -1.04,-13.75 2.46,-26.67 9.68,-36.76 7.94,-10.92 19.53,-17.25 33.47,-18.3 9.29,-0.7 16.3,1.88 21.81,5.17 l -2.55,-33.75 35.04,-2.65 9.71,128.42 -30.98,2.34 -0.48,-6.39 c -5.1,4.67 -13.3,9.57 -24.91,10.45 -13.36,1.01 -25.33,-2.76 -34.53,-11.21 z m 37.22,-25.4 c 9.1,-0.69 15.9,-8.6 15.24,-17.32 -0.67,-8.91 -8.57,-15.51 -17.67,-14.83 -8.91,0.67 -15.72,8.39 -15.05,17.3 0.66,8.71 8.57,15.51 17.48,14.84 z"
       id="path20"
       style="display:inline" />
  </g>
</svg>
